<?xml version="1.0" encoding="utf-8"?>
<!DOCTYPE svg PUBLIC "-//W3C//DTD SVG 20010904//EN" "http://www.w3.org/TR/2001/REC-SVG-20010904/DTD/svg10.dtd">
<svg version="1.0" xmlns="http://www.w3.org/2000/svg" width="195pt" height="152pt" viewBox="0 0 195 152" style="" preserveAspectRatio="xMidYMid meet">
<g fill="#65A847FF" stroke="#65A847FF">
<path d="M 113.000 21.548 L 113.000 32.096 108.750 29.185 C 95.490 20.102 79.375 16.848 63.799 20.110 C 36.462 25.834 14.710 58.942 18.980 88.328 C 23.206 117.414 46.409 139.000 73.590 139.133 C 87.398 139.201 99.444 134.139 110.014 123.828 C 115.573 118.406 119.987 112.623 119.996 110.750 C 119.998 110.338 117.458 110.000 114.351 110.000 C 109.236 110.000 108.389 110.323 105.385 113.415 C 100.226 118.727 92.273 121.368 81.500 121.347 C 70.771 121.327 65.560 119.629 58.842 113.964 C 54.954 110.685 53.395 109.999 49.821 109.996 C 41.630 109.989 35.458 103.659 34.326 94.105 C 33.830 89.919 34.180 88.153 36.404 83.606 C 40.458 75.322 43.890 74.000 61.356 74.000 C 77.574 74.000 79.587 74.723 89.289 84.042 C 95.945 90.436 96.137 90.532 99.066 88.965 C 100.730 88.074 101.000 86.816 101.000 79.965 L 101.000 72.000 122.962 72.000 C 142.487 72.000 145.519 71.778 150.278 69.997 C 159.621 66.502 164.000 59.960 164.000 49.500 C 164.000 37.480 161.122 34.694 134.720 21.148 C 123.841 15.567 114.503 11.000 113.970 11.000 C 113.405 11.000 113.000 15.401 113.000 21.548 M 136.834 40.596 C 140.016 42.825 139.489 47.885 135.865 49.909 C 133.506 51.227 132.957 51.202 130.615 49.667 C 127.236 47.454 127.035 42.789 130.223 40.557 C 133.014 38.601 133.994 38.607 136.834 40.596 "/></g>
<g fill="#0098D2FF" stroke="#0098D2FF">
<path d="M 37.485 89.024 C 37.137 89.588 37.146 91.388 37.505 93.024 L 38.159 96.000 96.079 96.000 L 154.000 96.000 154.000 92.000 L 154.000 88.000 128.500 88.000 C 112.615 88.000 103.000 88.367 103.000 88.974 C 103.000 90.287 97.611 93.000 95.004 93.000 C 93.852 93.000 91.784 91.875 90.409 90.500 L 87.909 88.000 63.014 88.000 C 47.100 88.000 37.890 88.370 37.485 89.024 "/></g>
<g fill="#0098D2FF" stroke="#0098D2FF">
<path d="M 42.306 102.532 L 45.112 105.000 99.556 105.000 L 154.000 105.000 154.000 102.500 L 154.000 100.000 96.750 100.032 L 39.500 100.063 42.306 102.532 "/></g>
<g fill="#0098D2FF" stroke="#0098D2FF">
<path d="M 105.000 80.500 L 105.000 84.000 129.500 84.000 L 154.000 84.000 154.000 80.500 L 154.000 77.000 129.500 77.000 L 105.000 77.000 105.000 80.500 "/></g>
<g fill="#0098D2FF" stroke="#0098D2FF">
<path d="M 158.221 91.045 L 158.500 104.095 167.895 98.069 C 173.062 94.755 177.482 91.851 177.717 91.616 C 178.081 91.252 171.259 86.496 160.721 79.768 L 157.942 77.994 158.221 91.045 "/></g>
<g fill="#0098D2FF" stroke="#0098D2FF">
<path d="M 44.207 78.668 C 42.396 79.561 40.468 81.126 39.922 82.146 C 38.969 83.926 39.833 84.000 61.587 84.000 C 82.082 84.000 84.120 83.850 82.939 82.427 C 82.221 81.562 79.934 79.987 77.857 78.927 C 72.726 76.310 49.358 76.130 44.207 78.668 "/></g>
</svg>
