<?xml version="1.0" encoding="utf-8"?>
<!DOCTYPE svg PUBLIC "-//W3C//DTD SVG 20010904//EN" "http://www.w3.org/TR/2001/REC-SVG-20010904/DTD/svg10.dtd">
<svg version="1.0" xmlns="http://www.w3.org/2000/svg" width="297pt" height="226pt" viewBox="0 0 297 226" style="" preserveAspectRatio="xMidYMid meet">
<g fill="#65A847FF" stroke="#65A847FF">
<path d="M 172.000 31.008 L 172.000 47.015 166.206 43.060 C 151.967 33.341 137.383 28.422 119.477 27.299 C 83.807 25.062 49.377 48.033 35.240 83.500 C 23.976 111.761 24.683 134.896 37.623 161.421 C 50.485 187.786 83.021 208.035 112.440 207.985 C 138.135 207.941 167.343 191.598 180.886 169.685 C 184.245 164.249 183.937 164.000 173.846 164.000 L 164.692 164.000 161.288 167.977 C 159.294 170.307 155.321 173.159 151.692 174.867 C 135.416 182.525 117.745 182.967 100.123 176.157 C 94.714 174.067 93.427 173.209 87.000 167.404 C 83.888 164.594 82.653 164.184 75.867 163.708 C 66.764 163.069 63.347 161.480 58.593 155.679 C 47.296 141.892 50.981 120.662 66.001 112.999 C 69.585 111.171 71.896 111.000 93.000 111.000 C 114.577 111.000 116.354 111.139 120.290 113.133 C 126.334 116.196 131.641 120.421 138.537 127.661 C 145.413 134.882 148.121 135.607 152.364 131.364 C 154.887 128.840 155.000 128.263 155.000 117.922 L 155.000 107.117 190.250 106.780 C 222.541 106.471 225.912 106.277 230.403 104.471 C 236.867 101.873 244.458 94.952 247.805 88.608 C 250.209 84.048 250.499 82.427 250.499 73.500 C 250.500 64.381 250.257 63.086 247.738 58.802 C 242.583 50.032 239.062 47.711 205.500 30.964 C 187.900 22.182 173.163 14.998 172.750 14.998 C 172.338 14.999 172.000 22.203 172.000 31.008 M 209.077 60.923 C 212.350 64.196 212.707 66.731 210.498 71.005 C 207.571 76.665 198.672 75.765 195.828 69.521 C 194.236 66.029 195.618 62.203 199.277 59.973 C 203.662 57.299 205.645 57.491 209.077 60.923 "/></g>
<g fill="#0098D4FF" stroke="#0098D4FF">
<path d="M 57.200 136.750 L 57.500 142.500 146.250 142.755 L 235.000 143.011 235.000 137.005 L 235.000 131.000 195.969 131.000 C 162.434 131.000 156.857 131.208 156.369 132.480 C 156.057 133.294 154.241 134.924 152.334 136.102 C 147.587 139.036 141.890 138.255 137.581 134.079 L 134.405 131.000 95.652 131.000 L 56.900 131.000 57.200 136.750 "/></g>
<g fill="#0098D4FF" stroke="#0098D4FF">
<path d="M 61.000 149.345 C 61.000 151.006 63.488 153.246 67.700 155.379 C 70.574 156.834 79.287 157.000 152.950 157.000 L 235.000 157.000 235.000 152.500 L 235.000 148.000 148.000 148.000 C 75.789 148.000 61.000 148.229 61.000 149.345 "/></g>
<g fill="#0098D4FF" stroke="#0098D4FF">
<path d="M 159.000 120.500 L 159.000 126.000 197.000 126.000 L 235.000 126.000 235.000 120.500 L 235.000 115.000 197.000 115.000 L 159.000 115.000 159.000 120.500 "/></g>
<g fill="#0098D4FF" stroke="#0098D4FF">
<path d="M 65.610 117.365 C 62.169 119.448 59.138 123.083 59.035 125.250 C 59.016 125.663 74.525 126.000 93.500 126.000 C 112.475 126.000 128.000 125.636 128.000 125.191 C 128.000 123.498 125.313 121.045 120.206 118.077 L 114.912 115.000 92.206 115.005 C 70.133 115.010 69.392 115.076 65.610 117.365 "/></g>
<g fill="#0098D4FF" stroke="#0098D4FF">
<path d="M 240.791 135.499 C 240.951 146.225 241.193 155.000 241.330 155.000 C 242.255 155.000 249.681 150.643 256.000 146.392 C 260.125 143.617 265.421 140.281 267.768 138.978 C 270.116 137.676 271.916 136.273 271.768 135.859 C 271.621 135.446 267.450 132.540 262.500 129.402 C 250.655 121.892 241.102 116.000 240.768 115.999 C 240.621 115.998 240.631 124.773 240.791 135.499 "/></g>
</svg>
