<?xml version="1.0" encoding="utf-8"?>
<!DOCTYPE svg PUBLIC "-//W3C//DTD SVG 20010904//EN" "http://www.w3.org/TR/2001/REC-SVG-20010904/DTD/svg10.dtd">
<svg version="1.0" xmlns="http://www.w3.org/2000/svg" width="305pt" height="295pt" viewBox="0 0 305 295" style="" preserveAspectRatio="xMidYMid meet">
<g fill="#65A847FF" stroke="#65A847FF">
<path d="M 182.000 65.008 L 182.000 81.015 176.206 77.060 C 161.967 67.341 147.383 62.422 129.477 61.299 C 93.807 59.062 59.377 82.033 45.240 117.500 C 33.976 145.761 34.683 168.896 47.623 195.421 C 60.485 221.786 93.021 242.035 122.440 241.985 C 148.135 241.941 177.343 225.598 190.886 203.685 C 194.245 198.249 193.937 198.000 183.846 198.000 L 174.692 198.000 171.288 201.977 C 169.294 204.307 165.321 207.159 161.692 208.867 C 145.416 216.525 127.745 216.967 110.123 210.157 C 104.714 208.067 103.427 207.209 97.000 201.404 C 93.888 198.594 92.653 198.184 85.867 197.708 C 76.764 197.069 73.347 195.480 68.593 189.679 C 57.296 175.892 60.981 154.662 76.001 146.999 C 79.585 145.171 81.896 145.000 103.000 145.000 C 124.577 145.000 126.354 145.139 130.290 147.133 C 136.334 150.196 141.641 154.421 148.537 161.661 C 155.413 168.882 158.121 169.607 162.364 165.364 C 164.887 162.840 165.000 162.263 165.000 151.922 L 165.000 141.117 200.250 140.780 C 232.541 140.471 235.912 140.277 240.403 138.471 C 246.867 135.873 254.458 128.952 257.805 122.608 C 260.209 118.048 260.499 116.427 260.499 107.500 C 260.500 98.381 260.257 97.086 257.738 92.802 C 252.583 84.032 249.062 81.711 215.500 64.964 C 197.900 56.182 183.163 48.998 182.750 48.998 C 182.338 48.999 182.000 56.203 182.000 65.008 M 219.077 94.923 C 222.350 98.196 222.707 100.731 220.498 105.005 C 217.571 110.665 208.672 109.765 205.828 103.521 C 204.236 100.029 205.618 96.203 209.277 93.973 C 213.662 91.299 215.645 91.491 219.077 94.923 "/></g>
<g fill="#0098D4FF" stroke="#0098D4FF">
<path d="M 67.200 170.750 L 67.500 176.500 156.250 176.755 L 245.000 177.011 245.000 171.005 L 245.000 165.000 205.969 165.000 C 172.434 165.000 166.857 165.208 166.369 166.480 C 166.057 167.294 164.241 168.924 162.334 170.102 C 157.587 173.036 151.890 172.255 147.581 168.079 L 144.405 165.000 105.652 165.000 L 66.900 165.000 67.200 170.750 "/></g>
<g fill="#0098D4FF" stroke="#0098D4FF">
<path d="M 71.000 183.345 C 71.000 185.006 73.488 187.246 77.700 189.379 C 80.574 190.834 89.287 191.000 162.950 191.000 L 245.000 191.000 245.000 186.500 L 245.000 182.000 158.000 182.000 C 85.789 182.000 71.000 182.229 71.000 183.345 "/></g>
<g fill="#0098D4FF" stroke="#0098D4FF">
<path d="M 169.000 154.500 L 169.000 160.000 207.000 160.000 L 245.000 160.000 245.000 154.500 L 245.000 149.000 207.000 149.000 L 169.000 149.000 169.000 154.500 "/></g>
<g fill="#0098D4FF" stroke="#0098D4FF">
<path d="M 75.610 151.365 C 72.169 153.448 69.138 157.083 69.035 159.250 C 69.016 159.663 84.525 160.000 103.500 160.000 C 122.475 160.000 138.000 159.636 138.000 159.191 C 138.000 157.498 135.313 155.045 130.206 152.077 L 124.912 149.000 102.206 149.005 C 80.133 149.010 79.392 149.076 75.610 151.365 "/></g>
<g fill="#0098D4FF" stroke="#0098D4FF">
<path d="M 250.791 169.499 C 250.951 180.225 251.193 189.000 251.330 189.000 C 252.255 189.000 259.681 184.643 266.000 180.392 C 270.125 177.617 275.421 174.281 277.768 172.978 C 280.116 171.676 281.916 170.273 281.768 169.859 C 281.621 169.446 277.450 166.540 272.500 163.402 C 260.655 155.892 251.102 150.000 250.768 149.999 C 250.621 149.998 250.631 158.773 250.791 169.499 "/></g>
</svg>
